# Blender v2.77 (sub 0) OBJ File: 'box.blend'
# www.blender.org
o Cube_LOD0_Cube.000
v -0.500000 -0.500000 0.500000
v -0.500000 0.500000 0.500000
v -0.500000 -0.500000 -0.500000
v -0.500000 0.500000 -0.500000
v 0.500000 -0.500000 0.500000
v 0.500000 0.500000 0.500000
v 0.500000 -0.500000 -0.500000
v 0.500000 0.500000 -0.500000
v -0.400000 0.500000 -0.500000
v -0.400000 -0.500000 -0.500000
v -0.400000 0.500000 0.500000
v -0.400000 -0.500000 0.500000
v 0.400000 0.500000 -0.500000
v 0.400000 -0.500000 0.500000
v 0.400000 -0.500000 -0.500000
v 0.400000 0.500000 0.500000
v -0.500000 0.400000 0.500000
v -0.500000 0.400000 -0.500000
v 0.500000 0.400000 -0.500000
v 0.500000 0.400000 0.500000
v -0.400000 0.400000 0.500000
v -0.400000 0.400000 -0.500000
v 0.400000 0.400000 0.500000
v 0.400000 0.400000 -0.500000
v -0.500000 -0.400000 -0.500000
v 0.500000 -0.400000 -0.500000
v 0.500000 -0.400000 0.500000
v -0.400000 -0.400000 0.500000
v -0.400000 -0.400000 -0.500000
v 0.400000 -0.400000 0.500000
v 0.400000 -0.400000 -0.500000
v -0.500000 -0.400000 0.500000
v -0.500000 0.500000 0.400000
v -0.500000 -0.500000 0.400000
v 0.500000 0.500000 0.400000
v 0.500000 -0.500000 0.400000
v -0.400000 0.500000 0.400000
v -0.400000 -0.500000 0.400000
v 0.400000 0.500000 0.400000
v 0.400000 -0.500000 0.400000
v 0.500000 0.400000 0.400000
v -0.500000 0.400000 0.400000
v 0.500000 -0.400000 0.400000
v -0.500000 -0.400000 0.400000
v -0.500000 0.500000 -0.400000
v 0.500000 -0.500000 -0.400000
v 0.500000 0.400000 -0.400000
v 0.500000 -0.400000 -0.400000
v -0.500000 -0.500000 -0.400000
v 0.500000 0.500000 -0.400000
v -0.400000 0.500000 -0.400000
v -0.400000 -0.500000 -0.400000
v 0.400000 0.500000 -0.400000
v 0.400000 -0.500000 -0.400000
v -0.500000 0.400000 -0.400000
v -0.500000 -0.400000 -0.400000
v 0.400000 0.400000 -0.462500
v -0.400000 0.400000 -0.462500
v -0.400000 0.400000 0.462500
v 0.400000 0.400000 0.462500
v -0.400000 -0.400000 0.462500
v -0.400000 -0.400000 -0.462500
v 0.400000 -0.400000 0.462500
v 0.400000 -0.400000 -0.462500
v -0.400000 0.462500 -0.400000
v -0.400000 0.462500 0.400000
v -0.400000 -0.462500 -0.400000
v -0.400000 -0.462500 0.400000
v 0.400000 0.462500 -0.400000
v 0.400000 0.462500 0.400000
v 0.400000 -0.462500 -0.400000
v 0.400000 -0.462500 0.400000
v -0.462500 0.400000 -0.400000
v -0.462500 0.400000 0.400000
v -0.462500 -0.400000 -0.400000
v -0.462500 -0.400000 0.400000
v 0.462500 0.400000 0.400000
v 0.462500 -0.400000 0.400000
v 0.462500 0.400000 -0.400000
v 0.462500 -0.400000 -0.400000
vt 0.9609 0.4842
vt 0.9921 0.4842
vt 0.9921 0.5153
vt 0.9609 0.5153
vt 0.9609 0.5782
vt 0.9921 0.5782
vt 0.9921 0.6094
vt 0.9609 0.6094
vt 0.7119 0.3273
vt 0.6808 0.3273
vt 0.6808 0.2962
vt 0.7119 0.2962
vt 0.7119 0.7504
vt 0.6808 0.7504
vt 0.6808 0.7192
vt 0.7119 0.7192
vt 0.9609 0.7034
vt 0.9609 0.6722
vt 0.9921 0.6722
vt 0.9921 0.7034
vt 0.7119 0.6252
vt 0.7119 0.6564
vt 0.6808 0.6564
vt 0.6808 0.6252
vt 0.9609 0.6252
vt 0.9609 0.6564
vt 0.6808 0.7034
vt 0.6808 0.6722
vt 0.7119 0.6722
vt 0.7119 0.7034
vt 0.9609 0.7504
vt 0.9609 0.7192
vt 0.6808 0.5782
vt 0.7119 0.5782
vt 0.7119 0.6094
vt 0.6808 0.6094
vt 0.9921 0.7504
vt 0.9921 0.7192
vt 0.9921 0.6252
vt 0.9921 0.6564
vt 0.4236 0.9198
vt 0.6727 0.9198
vt 0.6727 0.9510
vt 0.4236 0.9510
vt 0.9921 0.4683
vt 0.9609 0.4683
vt 0.9609 0.4372
vt 0.9921 0.4372
vt 0.3925 0.9198
vt 0.3925 0.9510
vt 0.7119 0.4683
vt 0.7119 0.4372
vt 0.6808 0.4683
vt 0.6808 0.4372
vt 0.7119 0.3743
vt 0.6808 0.3743
vt 0.6808 0.3432
vt 0.7119 0.3432
vt 0.7038 0.9198
vt 0.7038 0.9510
vt 0.9609 0.3902
vt 0.9921 0.3902
vt 0.9921 0.4213
vt 0.9609 0.4213
vt 0.6532 0.2803
vt 0.4042 0.2803
vt 0.4042 0.2687
vt 0.6532 0.2686
vt 0.9265 0.2410
vt 0.9265 0.2721
vt 0.6775 0.2721
vt 0.6775 0.2410
vt 0.9696 0.9624
vt 0.9696 0.9935
vt 0.7206 0.9935
vt 0.7206 0.9624
vt 0.6532 0.8568
vt 0.4042 0.8568
vt 0.4042 0.8452
vt 0.6532 0.8452
vt 0.9265 0.0027
vt 0.9265 0.0339
vt 0.6775 0.0339
vt 0.6775 0.0027
vt 0.9265 0.0967
vt 0.9265 0.1279
vt 0.6775 0.1279
vt 0.6775 0.0967
vt 0.9265 0.1437
vt 0.9265 0.1749
vt 0.6775 0.1749
vt 0.6775 0.1437
vt 0.9265 0.1907
vt 0.9265 0.2219
vt 0.6775 0.2219
vt 0.6775 0.1907
vt 0.9265 0.0497
vt 0.9265 0.0809
vt 0.6775 0.0809
vt 0.6775 0.0497
vt 0.3766 0.2005
vt 0.2005 0.3766
vt 0.1923 0.3684
vt 0.3684 0.1923
vt 0.6808 0.3902
vt 0.7119 0.3902
vt 0.7119 0.4213
vt 0.6808 0.4213
vt 0.9609 0.3743
vt 0.9609 0.3432
vt 0.7119 0.5623
vt 0.7119 0.5312
vt 0.9609 0.5312
vt 0.9609 0.5623
vt 0.7038 0.8728
vt 0.7038 0.9040
vt 0.6727 0.9039
vt 0.6727 0.8728
vt 0.6808 0.5623
vt 0.6808 0.5312
vt 0.4236 0.9039
vt 0.4237 0.8727
vt 0.3925 0.9038
vt 0.3925 0.8727
vt 0.9921 0.5312
vt 0.9921 0.5623
vt 0.9609 0.3273
vt 0.9609 0.2962
vt 0.6808 0.4842
vt 0.7119 0.4842
vt 0.7119 0.5153
vt 0.6808 0.5153
vt 0.9921 0.3273
vt 0.9921 0.2962
vt 0.9921 0.3743
vt 0.9921 0.3432
vt 0.6726 0.9624
vt 0.6726 0.9935
vt 0.4236 0.9935
vt 0.4236 0.9624
vt 0.6649 0.5961
vt 0.6649 0.8452
vt 0.6532 0.5961
vt 0.0079 0.1840
vt 0.1840 0.0079
vt 0.1923 0.0162
vt 0.0162 0.1923
vt 0.6808 0.8132
vt 0.9298 0.8132
vt 0.9298 0.8444
vt 0.6808 0.8444
vt 0.7197 0.9198
vt 0.9687 0.9198
vt 0.9687 0.9510
vt 0.7197 0.9510
vt 0.0079 0.9415
vt 0.0079 0.6924
vt 0.0196 0.6924
vt 0.0196 0.9415
vt 0.7197 0.8727
vt 0.9687 0.8727
vt 0.9687 0.9038
vt 0.7197 0.9038
vt 0.6808 0.7662
vt 0.9298 0.7662
vt 0.9298 0.7974
vt 0.6808 0.7974
vt 0.6532 0.5569
vt 0.4042 0.5569
vt 0.4042 0.3079
vt 0.6532 0.3079
vt 0.2686 0.9415
vt 0.2686 0.6924
vt 0.0196 0.4042
vt 0.2686 0.4042
vt 0.2686 0.6532
vt 0.0196 0.6532
vt 0.4042 0.0196
vt 0.6532 0.0196
vt 0.4042 0.5961
vt 0.2803 0.6924
vt 0.2803 0.9415
vt 0.3925 0.2687
vt 0.3925 0.0196
vt 0.6532 0.5686
vt 0.4042 0.5686
vt 0.0196 0.3925
vt 0.2686 0.3925
vt 0.3925 0.5569
vt 0.3925 0.3079
vt 0.2803 0.4042
vt 0.2803 0.6532
vt 0.4042 0.2962
vt 0.6532 0.2962
vt 0.1840 0.3766
vt 0.0079 0.2005
vt 0.2686 0.6649
vt 0.0196 0.6649
vt 0.2686 0.9532
vt 0.0196 0.9532
vt 0.6649 0.3079
vt 0.6649 0.5569
vt 0.6649 0.0196
vt 0.6649 0.2686
vt 0.3925 0.8452
vt 0.3925 0.5961
vt 0.4042 0.5845
vt 0.6532 0.5845
vt 0.0079 0.6532
vt 0.0079 0.4042
vt 0.0196 0.6808
vt 0.2686 0.6808
vt 0.2005 0.0079
vt 0.3766 0.1840
vt 0.4042 0.0079
vt 0.6532 0.0079
vn -1.0000 0.0000 0.0000
vn 0.0000 0.0000 -1.0000
vn 1.0000 0.0000 0.0000
vn 0.0000 0.0000 1.0000
vn 0.0000 -1.0000 0.0000
vn 0.0000 1.0000 0.0000
s off
f 56/1/1 25/2/1 3/3/1 49/4/1
f 31/5/2 26/6/2 7/7/2 15/8/2
f 43/9/3 27/10/3 5/11/3 36/12/3
f 28/13/4 32/14/4 1/15/4 12/16/4
f 54/17/5 15/18/5 7/19/5 46/20/5
f 51/21/6 9/22/6 4/23/6 45/24/6
f 53/25/6 13/26/6 9/22/6 51/21/6
f 49/27/5 3/28/5 10/29/5 52/30/5
f 30/31/4 28/13/4 12/16/4 14/32/4
f 25/33/2 29/34/2 10/35/2 3/36/2
f 27/37/4 30/31/4 14/32/4 5/38/4
f 50/39/6 8/40/6 13/26/6 53/25/6
f 52/30/5 10/29/5 15/18/5 54/17/5
f 29/34/2 31/5/2 15/8/2 10/35/2
f 9/41/2 13/42/2 24/43/2 22/44/2
f 6/45/4 16/46/4 23/47/4 20/48/4
f 4/49/2 9/41/2 22/44/2 18/50/2
f 16/46/4 11/51/4 21/52/4 23/47/4
f 11/51/4 2/53/4 17/54/4 21/52/4
f 35/55/3 6/56/3 20/57/3 41/58/3
f 13/42/2 8/59/2 19/60/2 24/43/2
f 45/61/1 4/62/1 18/63/1 55/64/1
f 54/65/1 40/66/1 72/67/1 71/68/1
f 20/69/4 23/70/4 30/71/4 27/72/4
f 18/73/2 22/74/2 29/75/2 25/76/2
f 53/77/4 51/78/4 65/79/4 69/80/4
f 21/81/4 17/82/4 32/83/4 28/84/4
f 41/85/3 20/86/3 27/87/3 43/88/3
f 24/89/2 19/90/2 26/91/2 31/92/2
f 55/93/1 18/94/1 25/95/1 56/96/1
f 17/97/1 42/98/1 44/99/1 32/100/1
f 31/101/6 29/102/6 62/103/6 64/104/6
f 2/105/1 33/106/1 42/107/1 17/108/1
f 50/109/3 35/55/3 41/58/3 47/110/3
f 12/111/5 38/112/5 40/113/5 14/114/5
f 6/115/6 35/116/6 39/117/6 16/118/6
f 1/119/5 34/120/5 38/112/5 12/111/5
f 16/118/6 39/117/6 37/121/6 11/122/6
f 11/122/6 37/121/6 33/123/6 2/124/6
f 14/114/5 40/113/5 36/125/5 5/126/5
f 48/127/3 43/9/3 36/12/3 46/128/3
f 32/129/1 44/130/1 34/131/1 1/132/1
f 26/133/3 48/127/3 46/128/3 7/134/3
f 8/135/3 50/109/3 47/110/3 19/136/3
f 19/137/3 47/138/3 48/139/3 26/140/3
f 39/141/1 53/142/1 69/80/1 70/143/1
f 33/106/1 45/61/1 55/64/1 42/107/1
f 22/144/5 24/145/5 57/146/5 58/147/5
f 35/148/6 50/149/6 53/150/6 39/151/6
f 34/152/5 49/153/5 52/154/5 38/155/5
f 41/156/2 43/157/2 78/158/2 77/159/2
f 37/160/6 51/161/6 45/162/6 33/163/6
f 40/164/5 54/165/5 46/166/5 36/167/5
f 44/130/1 56/1/1 49/4/1 34/131/1
f 58/147/2 57/146/2 64/104/2 62/103/2
f 60/168/4 59/169/4 61/170/4 63/171/4
f 79/172/3 77/159/3 78/158/3 80/173/3
f 74/174/1 73/175/1 75/176/1 76/177/1
f 68/178/5 67/179/5 71/68/5 72/67/5
f 70/143/6 69/80/6 65/79/6 66/180/6
f 48/181/4 47/182/4 79/172/4 80/173/4
f 40/183/2 38/184/2 68/178/2 72/67/2
f 23/185/5 21/186/5 59/169/5 60/168/5
f 42/187/5 55/188/5 73/175/5 74/174/5
f 21/189/3 28/190/3 61/170/3 59/169/3
f 55/191/4 56/192/4 75/176/4 73/175/4
f 28/193/6 30/194/6 63/171/6 61/170/6
f 29/195/3 22/196/3 58/147/3 62/103/3
f 56/197/6 44/198/6 76/177/6 75/176/6
f 47/199/5 41/200/5 77/159/5 79/172/5
f 30/201/1 23/202/1 60/168/1 63/171/1
f 52/203/4 54/204/4 71/68/4 67/179/4
f 51/205/3 37/206/3 66/180/3 65/79/3
f 37/207/2 39/208/2 70/143/2 66/180/2
f 44/209/2 42/210/2 74/174/2 76/177/2
f 43/211/6 48/212/6 80/173/6 78/158/6
f 24/213/1 31/214/1 64/104/1 57/146/1
f 38/215/3 52/216/3 67/179/3 68/178/3
