# Blender v2.77 (sub 0) OBJ File: 'hammer.blend'
# www.blender.org
o Hammer_LOD0_Cube.001
v -0.013952 0.015120 -0.010771
v -0.013952 0.015120 0.349229
v 0.000155 0.013591 -0.010771
v 0.000155 0.013591 0.349229
v 0.008874 0.005191 -0.010771
v 0.008874 0.005191 0.349229
v 0.008874 -0.005192 -0.010771
v 0.008874 -0.005191 0.349229
v 0.000155 -0.013591 -0.010771
v 0.000155 -0.013591 0.349229
v -0.013952 -0.015120 -0.010771
v -0.013952 -0.015120 0.349229
v -0.028058 -0.013591 -0.010771
v -0.028058 -0.013591 0.349229
v -0.036777 -0.005192 -0.010771
v -0.036777 -0.005191 0.349229
v -0.036777 0.005191 -0.010771
v -0.036777 0.005192 0.349229
v -0.028058 0.013591 -0.010771
v -0.028058 0.013592 0.349229
v -0.102800 -0.028000 -0.006789
v -0.104800 -0.028000 -0.008789
v -0.102800 -0.030000 -0.008789
v -0.104214 -0.028000 -0.007375
v -0.103954 -0.029155 -0.007634
v -0.104214 -0.029414 -0.008789
v -0.102800 -0.029414 -0.007375
v -0.102800 0.028000 -0.006789
v -0.102800 0.030000 -0.008789
v -0.104800 0.028000 -0.008789
v -0.102800 0.029414 -0.007375
v -0.103954 0.029155 -0.007634
v -0.104214 0.029414 -0.008789
v -0.104214 0.028000 -0.007375
v -0.102800 -0.028000 -0.066789
v -0.102800 -0.030000 -0.064789
v -0.104800 -0.028000 -0.064789
v -0.102800 -0.029414 -0.066203
v -0.103954 -0.029155 -0.065944
v -0.104214 -0.029414 -0.064789
v -0.104214 -0.028000 -0.066203
v -0.102800 0.030000 -0.064789
v -0.102800 0.028000 -0.066789
v -0.104800 0.028000 -0.064789
v -0.102800 0.029414 -0.066203
v -0.103954 0.029155 -0.065944
v -0.104214 0.028000 -0.066203
v -0.104214 0.029414 -0.064789
v 0.093295 -0.028000 -0.031682
v 0.093200 -0.030000 -0.033751
v 0.095200 -0.028000 -0.034289
v 0.093248 -0.029414 -0.032302
v 0.094375 -0.029155 -0.032892
v 0.094595 -0.029414 -0.034146
v 0.094662 -0.028000 -0.032683
v 0.093200 0.030000 -0.033751
v 0.093295 0.028000 -0.031682
v 0.095200 0.028000 -0.034289
v 0.093248 0.029414 -0.032302
v 0.094375 0.029155 -0.032892
v 0.094662 0.028000 -0.032683
v 0.094595 0.029414 -0.034146
v 0.093295 -0.028000 -0.041896
v 0.095200 -0.028000 -0.039289
v 0.093200 -0.030000 -0.039827
v 0.094662 -0.028000 -0.040895
v 0.094375 -0.029155 -0.040686
v 0.094595 -0.029414 -0.039432
v 0.093248 -0.029414 -0.041276
v 0.093200 0.030000 -0.039827
v 0.095200 0.028000 -0.039289
v 0.093295 0.028000 -0.041896
v 0.094595 0.029414 -0.039432
v 0.094375 0.029155 -0.040686
v 0.094662 0.028000 -0.040895
v 0.093248 0.029414 -0.041276
v 0.017106 0.028000 -0.066182
v 0.013200 0.028000 -0.066789
v 0.013200 0.030000 -0.064789
v 0.017200 0.030000 -0.064052
v 0.015173 0.028000 -0.066611
v 0.015205 0.029525 -0.066133
v 0.013200 0.029414 -0.066203
v 0.015200 0.030000 -0.064421
v 0.017279 0.029414 -0.065512
v 0.013200 -0.028000 -0.066789
v 0.017106 -0.028000 -0.066182
v 0.017200 -0.030000 -0.064052
v 0.013200 -0.030000 -0.064789
v 0.015173 -0.028000 -0.066611
v 0.015205 -0.029525 -0.066133
v 0.017279 -0.029414 -0.065512
v 0.015200 -0.030000 -0.064421
v 0.013200 -0.029414 -0.066203
v 0.013200 0.028000 -0.006789
v 0.017106 0.028000 -0.007396
v 0.017200 0.030000 -0.009526
v 0.013200 0.030000 -0.008789
v 0.015173 0.028000 -0.006967
v 0.015205 0.029525 -0.007445
v 0.017279 0.029414 -0.008066
v 0.015200 0.030000 -0.009157
v 0.013200 0.029414 -0.007375
v 0.017106 -0.028000 -0.007396
v 0.013200 -0.028000 -0.006789
v 0.013200 -0.030000 -0.008789
v 0.017200 -0.030000 -0.009526
v 0.015173 -0.028000 -0.006967
v 0.015205 -0.029525 -0.007445
v 0.013200 -0.029414 -0.007375
v 0.015200 -0.030000 -0.009157
v 0.017279 -0.029414 -0.008066
vt 0.7616 0.1354
vt 0.0027 0.1354
vt 0.0027 0.1055
vt 0.7616 0.1055
vt 0.0027 0.0800
vt 0.7616 0.0800
vt 0.0027 0.0581
vt 0.7616 0.0581
vt 0.0027 0.0326
vt 0.7616 0.0326
vt 0.0027 0.0027
vt 0.7616 0.0027
vt 0.7616 0.2682
vt 0.0027 0.2682
vt 0.0027 0.2383
vt 0.7616 0.2383
vt 0.0027 0.2128
vt 0.7616 0.2128
vt 0.0027 0.1909
vt 0.7616 0.1909
vt 0.5030 0.4656
vt 0.4733 0.4688
vt 0.4436 0.4656
vt 0.4252 0.4479
vt 0.4252 0.4260
vt 0.4436 0.4083
vt 0.4733 0.4051
vt 0.5030 0.4083
vt 0.5214 0.4260
vt 0.5214 0.4479
vt 0.7616 0.1653
vt 0.0027 0.1653
vt 0.0059 0.6579
vt 0.0059 0.5405
vt 0.2490 0.5405
vt 0.2490 0.6579
vt 0.2574 0.6563
vt 0.2574 0.5421
vt 0.4167 0.5928
vt 0.4167 0.6056
vt 0.2490 0.4093
vt 0.2490 0.5267
vt 0.0059 0.5267
vt 0.0059 0.4093
vt 0.4167 0.4616
vt 0.4167 0.4743
vt 0.2574 0.5251
vt 0.2574 0.4108
vt 0.3767 0.2778
vt 0.6202 0.2779
vt 0.6202 0.3954
vt 0.3766 0.3954
vt 0.6285 0.2779
vt 0.7964 0.2779
vt 0.7964 0.3955
vt 0.6285 0.3955
vt 0.0027 0.2778
vt 0.2462 0.2778
vt 0.2462 0.3954
vt 0.0027 0.3954
vt 0.8035 0.2779
vt 0.8140 0.2779
vt 0.8140 0.3955
vt 0.8035 0.3955
vt 0.8211 0.2779
vt 0.9890 0.2779
vt 0.9890 0.3955
vt 0.8211 0.3955
vt 0.2494 0.3954
vt 0.2491 0.3979
vt 0.2467 0.3986
vt 0.2526 0.3954
vt 0.2522 0.3986
vt 0.2497 0.3979
vt 0.0054 0.6610
vt 0.0030 0.6604
vt 0.0027 0.6579
vt 0.2467 0.2747
vt 0.2492 0.2753
vt 0.2494 0.2778
vt 0.0027 0.4093
vt 0.0030 0.4068
vt 0.0054 0.4061
vt 0.2527 0.2778
vt 0.2497 0.2753
vt 0.2522 0.2747
vt 0.3762 0.3986
vt 0.3737 0.3979
vt 0.3734 0.3954
vt 0.0027 0.5405
vt 0.0030 0.5380
vt 0.0054 0.5373
vt 0.3702 0.3954
vt 0.3731 0.3979
vt 0.3707 0.3986
vt 0.0054 0.5298
vt 0.0030 0.5292
vt 0.0027 0.5267
vt 0.3734 0.2778
vt 0.3737 0.2753
vt 0.3762 0.2747
vt 0.3702 0.2778
vt 0.3707 0.2747
vt 0.3731 0.2753
vt 0.8204 0.3986
vt 0.8178 0.3980
vt 0.8175 0.3955
vt 0.4198 0.6047
vt 0.4196 0.6074
vt 0.4173 0.6088
vt 0.8173 0.3980
vt 0.8147 0.3986
vt 0.4173 0.4584
vt 0.4196 0.4597
vt 0.4198 0.4624
vt 0.8176 0.2779
vt 0.8178 0.2754
vt 0.8204 0.2747
vt 0.8147 0.2747
vt 0.8173 0.2754
vt 0.7999 0.3955
vt 0.7997 0.3980
vt 0.7971 0.3986
vt 0.8028 0.3986
vt 0.8002 0.3980
vt 0.4173 0.5896
vt 0.4196 0.5909
vt 0.4198 0.5937
vt 0.4198 0.4735
vt 0.4196 0.4762
vt 0.4173 0.4776
vt 0.8000 0.2779
vt 0.8002 0.2754
vt 0.8028 0.2747
vt 0.7971 0.2747
vt 0.7997 0.2754
vt 0.6244 0.2779
vt 0.6246 0.2745
vt 0.6292 0.2746
vt 0.6203 0.2747
vt 0.6245 0.2745
vt 0.2532 0.5259
vt 0.2532 0.5296
vt 0.2490 0.5299
vt 0.2576 0.5284
vt 0.6243 0.3955
vt 0.6245 0.3988
vt 0.6203 0.3987
vt 0.6292 0.3987
vt 0.6246 0.3988
vt 0.2532 0.5413
vt 0.2532 0.5376
vt 0.2576 0.5388
vt 0.2490 0.5373
vt 0.9973 0.2779
vt 0.9932 0.2779
vt 0.9930 0.2746
vt 0.9972 0.2747
vt 0.9883 0.2747
vt 0.9929 0.2746
vt 0.2532 0.4101
vt 0.2532 0.4063
vt 0.2576 0.4076
vt 0.2490 0.4061
vt 0.9931 0.3955
vt 0.9929 0.3988
vt 0.9883 0.3987
vt 0.9973 0.3955
vt 0.9972 0.3987
vt 0.9930 0.3989
vt 0.2532 0.6571
vt 0.2532 0.6608
vt 0.2490 0.6611
vt 0.2576 0.6596
vt 0.2527 0.2746
vt 0.3702 0.2746
vt 0.3702 0.3986
vt 0.2526 0.3986
vt 0.4168 0.4776
vt 0.6293 0.2747
vt 0.7967 0.2747
vt 0.0059 0.5363
vt 0.2490 0.5363
vt 0.6202 0.3997
vt 0.3767 0.3997
vt 0.8032 0.2747
vt 0.8143 0.2747
vt 0.8143 0.3987
vt 0.8032 0.3987
vt 0.0059 0.4051
vt 0.2490 0.4051
vt 0.0027 0.2735
vt 0.2462 0.2736
vt 0.4168 0.6088
vt 0.9882 0.3987
vt 0.8208 0.3987
vt 0.2490 0.5309
vt 0.0059 0.5309
vt 0.3766 0.2736
vt 0.6202 0.2736
vt 0.4168 0.5895
vt 0.7967 0.3987
vt 0.6293 0.3987
vt 0.4168 0.4583
vt 0.8208 0.2747
vt 0.9882 0.2747
vt 0.2490 0.6621
vt 0.0059 0.6621
vt 0.2462 0.3997
vt 0.0027 0.3996
vn 0.0000 1.0000 -0.0000
vn 0.4236 0.9059 -0.0000
vn 0.9203 0.3913 -0.0000
vn 0.9203 -0.3913 0.0000
vn 0.4236 -0.9059 0.0000
vn -0.0000 -1.0000 0.0000
vn -0.4236 -0.9059 0.0000
vn -0.9203 -0.3913 0.0000
vn -0.9203 0.3913 -0.0000
vn 0.0000 0.0000 1.0000
vn -0.4236 0.9059 -0.0000
vn -0.1794 -0.9673 0.1794
vn -0.1794 -0.9673 -0.1794
vn 0.0025 -0.9821 -0.1880
vn 0.0025 -0.9821 0.1880
vn 0.0582 -0.9817 0.1812
vn 0.0582 -0.9817 -0.1812
vn 0.2230 -0.9611 -0.1626
vn 0.2230 -0.9611 0.1626
vn 0.0025 0.9821 0.1880
vn 0.0025 0.9821 -0.1880
vn -0.1794 0.9673 -0.1794
vn -0.1794 0.9673 0.1794
vn 0.2230 0.9611 0.1626
vn 0.2230 0.9611 -0.1626
vn 0.0582 0.9817 -0.1812
vn 0.0582 0.9817 0.1812
vn -0.1794 0.1794 -0.9673
vn 0.0352 0.1829 -0.9825
vn 0.0352 -0.1829 -0.9825
vn -0.1794 -0.1794 -0.9673
vn 0.2656 0.1817 -0.9468
vn 0.4332 0.1808 -0.8830
vn 0.4332 -0.1808 -0.8830
vn 0.2656 -0.1817 -0.9468
vn 0.0352 0.1829 0.9825
vn -0.1794 0.1794 0.9673
vn -0.1794 -0.1794 0.9673
vn 0.0352 -0.1829 0.9825
vn 0.9725 0.1824 -0.1446
vn 0.9725 0.1824 0.1446
vn 0.9725 -0.1824 0.1446
vn 0.9725 -0.1824 -0.1446
vn 0.4332 0.1808 0.8830
vn 0.2656 0.1817 0.9468
vn 0.2656 -0.1817 0.9468
vn 0.4332 -0.1808 0.8830
vn -0.6965 -0.1726 0.6965
vn -0.5773 -0.5773 0.5773
vn -0.1726 -0.6965 0.6965
vn -0.9673 -0.1794 0.1794
vn -0.6965 -0.6965 0.1726
vn -0.1726 0.6965 0.6965
vn -0.5773 0.5773 0.5773
vn -0.6965 0.1726 0.6965
vn -0.6965 0.6965 0.1726
vn -0.9673 0.1794 0.1794
vn -0.1726 -0.6965 -0.6965
vn -0.5773 -0.5773 -0.5773
vn -0.6965 -0.1726 -0.6965
vn -0.6965 -0.6965 -0.1726
vn -0.9673 -0.1794 -0.1794
vn -0.1726 0.6965 -0.6965
vn -0.5773 0.5773 -0.5773
vn -0.6965 0.6965 -0.1726
vn -0.6965 0.1726 -0.6965
vn -0.9673 0.1794 -0.1794
vn 0.3506 -0.6876 0.6358
vn 0.6644 -0.5681 0.4856
vn 0.7960 -0.1669 0.5817
vn 0.7118 -0.6880 0.1408
vn 0.3506 0.6876 0.6358
vn 0.6644 0.5681 0.4856
vn 0.7118 0.6880 0.1408
vn 0.7960 0.1669 0.5817
vn 0.7960 -0.1669 -0.5817
vn 0.6644 -0.5681 -0.4856
vn 0.3506 -0.6876 -0.6358
vn 0.7118 -0.6880 -0.1408
vn 0.7118 0.6880 -0.1408
vn 0.6644 0.5681 -0.4856
vn 0.3506 0.6876 -0.6358
vn 0.7960 0.1669 -0.5817
vn 0.1516 0.1713 -0.9735
vn 0.1148 0.7038 -0.7009
vn 0.2060 0.7075 -0.6759
vn 0.0163 0.7042 -0.7097
vn 0.0306 0.9865 -0.1605
vn 0.1516 -0.1713 -0.9735
vn 0.1148 -0.7039 -0.7009
vn 0.0163 -0.7042 -0.7097
vn 0.2060 -0.7075 -0.6759
vn 0.0306 -0.9865 -0.1605
vn 0.1516 0.1713 0.9735
vn 0.1148 0.7038 0.7009
vn 0.0163 0.7042 0.7097
vn 0.2060 0.7075 0.6759
vn 0.0306 0.9865 0.1605
vn 0.1516 -0.1713 0.9735
vn 0.1148 -0.7038 0.7009
vn 0.2060 -0.7075 0.6759
vn 0.0163 -0.7042 0.7097
vn 0.0306 -0.9865 0.1605
s 1
f 1/1/1 2/2/1 4/3/2 3/4/2
f 3/4/2 4/3/2 6/5/3 5/6/3
f 5/6/3 6/5/3 8/7/4 7/8/4
f 7/8/4 8/7/4 10/9/5 9/10/5
f 9/10/5 10/9/5 12/11/6 11/12/6
f 11/13/6 12/14/6 14/15/7 13/16/7
f 13/16/7 14/15/7 16/17/8 15/18/8
f 15/18/8 16/17/8 18/19/9 17/20/9
f 4/21/10 2/22/10 20/23/10 18/24/10 16/25/10 14/26/10 12/27/10 10/28/10 8/29/10 6/30/10
f 19/31/11 20/32/11 2/2/1 1/1/1
f 17/20/9 18/19/9 20/32/11 19/31/11
f 23/33/12 36/34/13 89/35/14 106/36/15
f 107/37/16 88/38/17 65/39/18 50/40/19
f 98/41/20 79/42/21 42/43/22 29/44/23
f 56/45/24 70/46/25 80/47/26 97/48/27
f 43/49/28 78/50/29 86/51/30 35/52/31
f 77/53/32 72/54/33 63/55/34 87/56/35
f 95/57/36 28/58/37 21/59/38 105/60/39
f 71/61/40 58/62/41 51/63/42 64/64/43
f 57/65/44 96/66/45 104/67/46 49/68/47
f 21/59/38 24/69/48 25/70/49 27/71/50
f 22/72/51 26/73/52 25/74/49 24/69/48
f 23/33/12 27/75/50 25/76/49 26/77/52
f 28/58/37 31/78/53 32/79/54 34/80/55
f 29/44/23 33/81/56 32/82/54 31/83/53
f 30/84/57 34/80/55 32/85/54 33/86/56
f 35/52/31 38/87/58 39/88/59 41/89/60
f 36/34/13 40/90/61 39/91/59 38/92/58
f 37/93/62 41/89/60 39/94/59 40/95/61
f 42/43/22 45/96/63 46/97/64 48/98/65
f 43/49/28 47/99/66 46/100/64 45/101/63
f 44/102/67 48/103/65 46/104/64 47/99/66
f 49/68/47 52/105/68 53/106/69 55/107/70
f 50/40/19 54/108/71 53/109/69 52/110/68
f 51/63/42 55/107/70 53/111/69 54/112/71
f 56/45/24 59/113/72 60/114/73 62/115/74
f 57/65/44 61/116/75 60/117/73 59/118/72
f 58/62/41 62/119/74 60/120/73 61/116/75
f 63/55/34 66/121/76 67/122/77 69/123/78
f 64/64/43 68/124/79 67/125/77 66/121/76
f 65/39/18 69/126/78 67/127/77 68/128/79
f 70/46/25 73/129/80 74/130/81 76/131/82
f 71/61/40 75/132/83 74/133/81 73/134/80
f 72/54/33 76/135/82 74/136/81 75/132/83
f 77/53/32 81/137/84 82/138/85 85/139/86
f 78/50/29 83/140/87 82/141/85 81/137/84
f 79/42/21 84/142/88 82/143/85 83/144/87
f 80/47/26 85/145/86 82/143/85 84/142/88
f 86/51/30 90/146/89 91/147/90 94/148/91
f 87/56/35 92/149/92 91/150/90 90/146/89
f 88/38/17 93/151/93 91/152/90 92/153/92
f 89/35/14 94/154/91 91/152/90 93/151/93
f 95/155/36 99/156/94 100/157/95 103/158/96
f 96/66/45 101/159/97 100/160/95 99/156/94
f 97/48/27 102/161/98 100/162/95 101/163/97
f 98/41/20 103/164/96 100/162/95 102/161/98
f 104/67/46 108/165/99 109/166/100 112/167/101
f 105/168/39 110/169/102 109/170/100 108/165/99
f 106/36/15 111/171/103 109/172/100 110/173/102
f 107/37/16 112/174/101 109/172/100 111/171/103
f 21/59/38 28/58/37 34/80/55 24/69/48
f 24/69/48 34/80/55 30/84/57 22/72/51
f 29/44/23 42/43/22 48/98/65 33/81/56
f 33/175/56 48/176/65 44/102/67 30/84/57
f 43/49/28 35/52/31 41/89/60 47/99/66
f 47/99/66 41/89/60 37/93/62 44/102/67
f 36/34/13 23/33/12 26/77/52 40/90/61
f 40/177/61 26/178/52 22/72/51 37/93/62
f 80/47/26 70/46/25 76/179/82 85/145/86
f 85/180/86 76/181/82 72/54/33 77/53/32
f 71/61/40 64/64/43 66/121/76 75/132/83
f 75/132/83 66/121/76 63/55/34 72/54/33
f 89/35/14 36/34/13 38/182/58 94/183/91
f 94/184/91 38/185/58 35/52/31 86/51/30
f 70/46/25 56/45/24 62/115/74 73/129/80
f 73/186/80 62/187/74 58/62/41 71/61/40
f 57/65/44 49/68/47 55/107/70 61/116/75
f 61/116/75 55/107/70 51/63/42 58/62/41
f 50/40/19 65/39/18 68/128/79 54/108/71
f 54/188/71 68/189/79 64/64/43 51/63/42
f 98/41/20 29/44/23 31/190/53 103/191/96
f 103/192/96 31/193/53 28/58/37 95/57/36
f 107/37/16 50/40/19 52/194/68 112/174/101
f 112/195/101 52/196/68 49/68/47 104/67/46
f 42/43/22 79/42/21 83/197/87 45/198/63
f 45/199/63 83/200/87 78/50/29 43/49/28
f 65/39/18 88/38/17 92/153/92 69/201/78
f 69/202/78 92/203/92 87/56/35 63/55/34
f 56/45/24 97/48/27 101/163/97 59/204/72
f 59/205/72 101/206/97 96/66/45 57/65/44
f 23/33/12 106/36/15 110/207/102 27/208/50
f 27/209/50 110/210/102 105/60/39 21/59/38
f 79/42/21 98/41/20 102/161/98 84/142/88
f 84/142/88 102/161/98 97/48/27 80/47/26
f 88/38/17 107/37/16 111/171/103 93/151/93
f 93/151/93 111/171/103 106/36/15 89/35/14
f 95/155/36 105/168/39 108/165/99 99/156/94
f 99/156/94 108/165/99 104/67/46 96/66/45
f 77/53/32 87/56/35 90/146/89 81/137/84
f 81/137/84 90/146/89 86/51/30 78/50/29
f 30/84/57 44/102/67 37/93/62 22/72/51
